# xmcd
#
# Track frame offsets: 
#        150
#        19264
#        32297
#        50678
#        64995
#        77310
#        84688
#        97753
#        111304
#        130036
#        144025
#        154501
#        165759
#        175745
#        186533
#        203607
#        220942
#        237931
#        256274
#        269447
#
# Disc length: 3778 seconds
#
# Revision: 4
# Processed by: cddbd v1.5.2PL0 Copyright (c) Steve Scherf et al.
# Submitted via: ExactAudioCopy v0.95b4
#
DISCID=fd0ec014
DTITLE=Various Artist - Alan Lomax - Blues Songbook [CD1]
DYEAR=2003
DGENRE=Blues
TTITLE0=Mississippi Fred McDowell, Fanny Davis, Miles Pratcher - Goin'
TTITLE0=Down To The River
TTITLE1=Rosalie Hill - Rolled And Tumbled
TTITLE2=Jack Owens and Bud Spires - Cherry Ball Blues
TTITLE3=Howlin' Wolf, Hubert Sumlin, Eddie Shaw - Dust My Broom
TTITLE4=Boy Blue, Joe Lee, Darnel Walker - Boogie Chilldren
TTITLE5=Lucious Curtis and Willie Ford - Stagolee
TTITLE6=Cecil Augusta - Stop All the Buses
TTITLE7=David "Honeyboy" Edwards - Worried Life Blues
TTITLE8=Son House - The Pony Blues
TTITLE9=Walter "Tangle Eye" Jackson - Tangle Eye Blues
TTITLE10=Vera Ward Hall and Dock Reed - Trouble So Hard
TTITLE11=Sonny Terry - Worried Blues
TTITLE12=Bessie Jones - Beggin' The Blues
TTITLE13=Gabriel Brown - John Henry
TTITLE14=Dock Boggs - Country Blues
TTITLE15=Skip James - Cherry Ball Blues
TTITLE16=Jelly Roll Morton - I Hate a Man Like You
TTITLE17=Pete Johnson - Roll 'Em
TTITLE18=The Memphis Jug Band - Kokomo
TTITLE19=Memphis Slim, Sonny Boy Williamson I, Big Bill Broonzy - Life
TTITLE19=Is Like That
EXTD=
EXTT0=
EXTT1=
EXTT2=
EXTT3=
EXTT4=
EXTT5=
EXTT6=
EXTT7=
EXTT8=
EXTT9=
EXTT10=
EXTT11=
EXTT12=
EXTT13=
EXTT14=
EXTT15=
EXTT16=
EXTT17=
EXTT18=
EXTT19=
PLAYORDER=
